<svg width="33" height="33" viewBox="0 0 33 33" fill="none" xmlns="http://www.w3.org/2000/svg">
<rect x="0.5" y="0.5" width="32" height="32" rx="5" fill="#0A63F9"/>
<path d="M28.5 16.5061L28.4401 16.0458C28.4401 15.8945 28.4401 15.7433 28.3869 15.5986C28.3337 15.454 28.3337 15.2633 28.3004 15.0923C28.2672 14.9213 28.2406 14.7767 28.2007 14.6189V14.5268C28.1541 14.3427 28.1075 14.1651 28.0477 13.9876C27.9878 13.8101 27.908 13.5273 27.8215 13.33C27.735 13.1328 27.6619 12.9355 27.5754 12.7382C27.4889 12.541 27.4024 12.3503 27.3027 12.1596C22.4734 22.194 16.0344 26.5668 13.5 27.9937C13.6663 28.0529 13.8459 28.0989 14.0122 28.1449L14.3448 28.2304C14.5976 28.2896 14.8503 28.3422 15.1098 28.3816H15.2761C15.4623 28.4145 15.6486 28.4342 15.8348 28.454C16.0211 28.4737 16.2406 28.4934 16.4468 28.5H17.0122C20.0515 28.4983 22.9664 27.3067 25.1193 25.1859C27.2721 23.0651 28.4877 20.1878 28.5 17.1834C28.5 16.9532 28.5 16.7362 28.5 16.5061Z" fill="white"/>
<path d="M26.9643 11.0106C28.4691 8.03988 28.9058 5.69949 28.1063 4.90148C27.7478 4.61038 27.2906 4.46865 26.8299 4.50583C25.5736 4.50583 23.6456 5.13619 21.4555 6.32315C20.0536 5.75653 18.5541 5.46948 17.0417 5.4782C14.1941 5.50799 11.4551 6.57324 9.33785 8.47433C7.22062 10.3754 5.87049 12.9819 5.54042 15.8054C5.33197 17.7053 5.59976 19.6272 6.31972 21.3982C4.59318 24.6238 4.0423 27.219 4.89549 28.1042C5.25435 28.3941 5.71202 28.5336 6.17192 28.4931C7.87748 28.3352 9.52923 27.8138 11.0156 26.9642C14.4038 25.1815 17.4931 22.8829 20.1723 20.1509C22.8996 17.476 25.1913 14.3921 26.9643 11.0106ZM9.59813 25.9046C8.53343 26.4568 7.37274 26.8005 6.17864 26.9172H6.04428C5.97038 26.2936 6.32644 24.9054 7.19978 23.1149C7.45931 23.5401 7.74657 23.9478 8.05969 24.3354C11.2172 22.8869 21.0121 17.8373 25.1638 8.77083C24.5575 8.16515 23.8809 7.63386 23.1484 7.18822L26.971 6.04821C27.0449 6.64504 26.7224 7.91917 25.9431 9.58896C24.2229 13.1197 21.9021 16.3257 19.084 19.0645C16.3389 21.8713 13.1301 24.1851 9.59813 25.9046Z" fill="white"/>
</svg>
